<svg width="3000" height="3000" viewBox="0 0 0 0" fill="none" xmlns="http://www.w3.org/2000/svg">
<path opacity="0.15" d="M335.29906,196.70573c-8.97244,2.91428 -18.84566,6.90595 -29.86693,11.86906c-41.94651,18.88822 -64.11233,-2.54955 -64.4458,-2.89238c13.21422,14.35803 48.34114,29.41936 83.62703,11.37028c-3.49713,4.4509 -7.55946,8.40725 -12.11633,11.78074c-22.34279,5.13973 -36.49028,-0.2826 -36.49028,-0.2826c5.5283,3.02025 14.69502,6.25245 27.94173,5.59894c-8.67218,4.48622 -18.51008,7.02959 -28.94849,7.02959c-34.84769,0 -63.08968,-28.242 -63.08968,-63.08968c0,-34.84769 28.242,-63.08968 63.08968,-63.08968c34.84769,0 63.08968,28.242 63.08968,63.08968c0,6.48206 -0.97142,12.73451 -2.79064,18.61605zM272.35067,128.51165c-23.29655,0 -42.1952,18.91631 -42.1952,42.21286c0,23.31422 18.89865,42.21286 42.1952,42.24819c8.49556,0 16.40826,-2.50804 23.03162,-6.85297c-4.00934,1.44831 -8.35426,2.26077 -12.89347,2.26077c-20.78851,0 -37.63833,-16.84982 -37.63833,-37.63833c0,-20.78851 16.84982,-37.63833 37.63833,-37.63833c4.53921,0 8.88413,0.7948 12.89347,2.26077c-6.62336,-4.34492 -14.53606,-6.85297 -23.03162,-6.85297zM307.86952,186.28498c3.19687,-4.85713 5.03375,-10.66802 5.03375,-16.9028c0,-17.09709 -13.88256,-30.97965 -30.99731,-30.97965c-17.13242,0 -30.99731,13.86489 -30.99731,30.97965c0,6.23479 1.83688,12.04568 5.03375,16.9028c-1.05974,-2.9496 -1.66026,-6.14647 -1.66026,-9.46699c0,-15.26021 12.3636,-27.62381 27.62381,-27.62381c15.26021,0 27.62381,12.3636 27.62381,27.62381c0,3.33817 -0.58285,6.51739 -1.66026,9.46699z" fill="white"/>
</svg>
