<svg width="305" height="158" viewBox="0 0 305 158" fill="none" xmlns="http://www.w3.org/2000/svg">
<g clip-path="url(#clip0_1_6)">
<path opacity="0.15" d="M30.092 85.9706C3.50004 107 -17 103 -28.908 97.9706C-31.2413 72.3039 -34.508 18.171 -28.908 6.97099C-21.908 -7.02901 41.092 -13.029 84.092 -20.029C118.492 -25.629 268.425 -31.363 334.092 -20.029C341.092 22.971 350.892 157.171 334.092 157.971C313.092 158.971 264.047 134.492 230 77.4921C185.5 2.992 168 104 118.5 115.5C90.1852 122.078 56.7309 64.9042 30.092 85.9706Z" fill="white"/>
</g>
<defs>
<clipPath id="clip0_1_6">
<rect width="305" height="158" fill="white" transform="matrix(1 0 0 -1 0 158)"/>
</clipPath>
</defs>
</svg>
