<svg width="1200" height="648" viewBox="0 0 1200 648" fill="none" xmlns="http://www.w3.org/2000/svg">
<path opacity="0.15" fill-rule="evenodd" clip-rule="evenodd" d="M0 648L25 642C50 636 100 624 150 588C200 552 250 492 300 474C350 456 400 480 450 510C500 540 550 576 600 558C650 540 700 468 750 444C800 420 850 444 900 474C950 504 1000 540 1050 522C1100 504 1150 432 1175 396L1200 360H1175C1150 360 1100 360 1050 360C1000 360 950 360 900 360C850 360 800 360 750 360C700 360 650 360 600 360C550 360 500 360 450 360C400 360 350 360 300 360C250 360 200 360 150 360C100 360 50 360 25 360H0V648Z" fill="white"/>
<path opacity="0.15" fill-rule="evenodd" clip-rule="evenodd" d="M0 72L18 96C36 120 73 168 109 174C145 180 182 144 218 114C255 84 291 60 327 90C364 120 400 204 436 222C473 240 509 192 545 162C582 132 618 120 655 138C691 156 727 204 764 234C800 264 836 276 873 270C909 264 945 240 982 222C1018 204 1055 192 1091 156C1127 120 1164 60 1182 30L1200 0V360H1182C1164 360 1127 360 1091 360C1055 360 1018 360 982 360C945 360 909 360 873 360C836 360 800 360 764 360C727 360 691 360 655 360C618 360 582 360 545 360C509 360 473 360 436 360C400 360 364 360 327 360C291 360 255 360 218 360C182 360 145 360 109 360C73 360 36 360 18 360H0V72Z" fill="white"/>
</svg>
