<svg width="305" height="134" viewBox="0 0 305 134" fill="none" xmlns="http://www.w3.org/2000/svg">
<g clip-path="url(#clip0_1_8)">
<path opacity="0.15" d="M30 73.9706C8.38248 83.2187 -10.5746 74.6373 -24.908 73.9706C-27.2413 48.3039 -30.508 -5.82901 -24.908 -17.029C-17.908 -31.029 45.092 -37.029 88.092 -44.029C122.492 -49.629 272.425 -28.363 338.092 -17.029C345.092 25.971 354.892 133.171 338.092 133.971C317.092 134.971 268.047 110.492 234 53.4921C189.5 -21.008 119 -3.008 94 22.992C73.8521 43.9459 58 61.9921 30 73.9706Z" fill="white"/>
</g>
<defs>
<clipPath id="clip0_1_8">
<rect width="305" height="134" fill="white" transform="matrix(1 0 0 -1 0 134)"/>
</clipPath>
</defs>
</svg>
