<svg width="934" height="934" viewBox="0 0 934 934" fill="none" xmlns="http://www.w3.org/2000/svg">
<path d="M315 172.253L270.197 187.185C267.265 188.149 265.104 191.097 265.062 194.185V559.999H257.593V283.772C257.541 281.501 256.385 279.288 254.562 277.939L224.698 255.543C221.771 253.048 219.76 254.668 217 254.845L172.197 277.241C169.749 278.433 168.062 281.053 167.999 283.772V574.932H765.333V283.772C765.265 281.048 763.583 278.428 761.135 277.241L716.332 254.845C713.296 253.084 711.233 254.735 708.634 255.543L678.77 277.939C676.942 279.282 675.786 281.496 675.734 283.767V559.993H660.802V194.18C660.766 191.092 658.604 188.144 655.667 187.18L610.864 172.248C608.859 170.925 606.989 172.529 605.265 172.717L575.401 187.649C572.953 188.842 571.265 191.461 571.203 194.18V559.993H563.734V373.353C563.667 369.885 560.865 366.661 557.432 366.119L512.629 358.655C511.614 358.176 510.541 358.655 509.598 358.655L479.734 366.119C476.557 366.942 474.135 370.072 474.135 373.353V559.993H451.734V343.487C451.666 340.018 448.864 336.794 445.432 336.252L400.629 328.789C399.614 328.31 398.541 328.789 397.598 328.789L367.734 336.252C364.557 337.075 362.135 340.205 362.135 343.487V559.993H354.666V194.18C354.599 191.456 352.916 188.836 350.468 187.649L320.604 172.717C318.157 171.451 316.511 171.738 315.005 172.248L315 172.253ZM309.865 189.748V560.001H280.001V552.538H302.402V537.606H280.001V530.142H302.402V515.21H280.001V507.747H302.402V492.815H280.001V485.351H302.402V470.419H280.001V462.955H302.402V448.023H280.001V440.56H302.402V425.628H280.001V418.164H302.402V403.232H280.001V395.769H302.402V380.837H280.001V373.373H302.402V358.441H280.001V350.977H302.402V336.045H280.001V328.582H302.402V313.65H280.001V306.186H302.402V291.254H280.001V283.791H287.469V209.135H280.001V199.801L309.865 189.748ZM615.998 189.748L645.862 199.779V209.113H638.393V283.769H645.862V291.232H623.461V306.164H645.862V313.628H623.461V328.56H645.862V336.023H623.461V350.955H645.862V358.419H623.461V373.351H645.862V380.815H623.461V395.747H645.862V403.21H623.461V418.142H645.862V425.606H623.461V440.538H645.862V448.001H623.461V462.933H645.862V470.397H623.461V485.329H645.862V492.793H623.461V507.725H645.862V515.188H623.461V530.12H645.862V537.584H623.461V552.516H645.862V559.979H615.998V189.748ZM324.798 191.383L339.73 198.847V201.649H332.261V224.045H339.73V231.509H332.261V283.769H339.73V291.232H332.261V343.492H339.73V350.956H332.261V403.216H339.73V410.68H332.261V462.94H339.73V470.403H332.261V485.335H339.73V492.799H332.261V507.731H339.73V515.194H332.261V530.126H339.73V537.59H332.261V552.522H339.73V559.986H324.798V191.383ZM601.065 191.383V559.997H586.133V552.533H593.601V537.601H586.133V530.138H593.601V515.206H586.133V507.742H593.601V492.81H586.133V485.346H593.601V470.414H586.133V462.951H593.601V410.691H586.133V403.227H593.601V350.967H586.133V343.504H593.601V291.244H586.133V283.78H593.601V231.52H586.133V224.056H593.601V201.66H586.133V198.858L601.065 191.383ZM212.798 273.509V560.002H182.934V552.539H205.335V537.607H182.934V530.143H205.335V515.211H182.934V507.747H205.335V492.815H182.934V485.352H205.335V470.42H182.934V462.956H205.335V448.024H182.934V440.561H205.335V425.629H182.934V418.165H205.335V403.233H182.934V395.769H205.335V380.837H182.934V373.374H205.335V358.442H182.934V350.978H205.335V336.046H182.934V328.583H205.335V313.651H182.934V306.187H205.335V291.255H182.934V288.453L212.798 273.509ZM720.531 273.509L750.395 288.441V294.972L727.994 283.774V343.498H750.395V358.43H727.994V418.154H750.395V433.086H727.994V492.81H750.395V507.742H727.994V560.002H720.525L720.531 273.509ZM227.731 276.311L242.663 287.509V291.243H235.194V343.503H242.663V350.967H235.194V403.227H242.663V410.69H235.194V462.95H242.663V470.414H235.194V485.346H242.663V492.81H235.194V507.742H242.663V515.205H235.194V530.137H242.663V537.601H235.194V552.533H242.663V559.996H227.731V276.311ZM705.598 276.311V560.004H690.666V552.541H698.135V537.609H690.666V522.677H698.135V507.745H690.666V492.813H698.135V477.881H690.666V462.949H698.135V448.017H690.666V433.085H698.135V418.153H690.666V403.221H698.135V388.289H690.666V373.357H698.135V358.425H690.666V343.493H698.135V328.561H690.666V313.629H698.135V298.697H690.666V287.499L705.598 276.311ZM391.998 345.603V560.003H384.529V515.211H377.06V507.747H384.529V455.487H377.06V448.024H384.529V395.764H377.06V388.3H384.529V347.472L391.998 345.603ZM406.93 359.832L436.794 364.733V372.197L406.93 367.067V359.832ZM511.461 373.598L518.929 374.764V395.759H489.065V379.196L511.461 373.598ZM533.862 377.332L548.794 379.665V560.012H533.862V377.332ZM406.93 382.233L436.794 387.134V394.598L406.93 389.467V382.233ZM406.93 404.629L436.794 409.53V416.994L406.93 411.863V404.629ZM489.066 410.697H518.93V425.629H489.066V410.697ZM406.93 427.03L436.794 431.931V439.395L406.93 434.265V427.03ZM489.066 440.561H518.93V455.493H489.066V440.561ZM406.93 449.425L436.794 454.326V461.79L406.93 456.66V449.425ZM489.066 470.42H518.93V485.352H489.066V470.42ZM406.93 471.821L436.794 476.722V484.186L406.93 479.05V471.821ZM406.93 494.217L436.794 499.118V506.582L406.93 501.451V494.217ZM489.066 500.285H518.93V515.217H489.066V500.285ZM406.93 516.618L436.794 521.519V528.983L406.93 523.853V516.618ZM489.066 530.149H518.93V545.081H489.066V530.149ZM406.93 539.013L436.794 543.914V551.378L406.93 546.248V539.013Z" fill="white"/>
</svg>
