<svg width="598" height="404" viewBox="0 0 598 404" fill="none" xmlns="http://www.w3.org/2000/svg">
<path d="M147.001 0.523495L102.198 15.4555C99.266 16.4195 97.105 19.3675 97.063 22.4555V388.27H89.594V112.042C89.542 109.771 88.386 107.558 86.563 106.209L56.699 83.8135C53.772 81.3185 51.761 82.9385 49.001 83.1155L4.19801 105.511C1.75001 106.703 0.063 109.323 0 112.042V403.202H597.334V112.042C597.266 109.318 595.584 106.698 593.136 105.511L548.333 83.1155C545.297 81.3545 543.234 83.0055 540.635 83.8135L510.771 106.209C508.943 107.552 507.787 109.766 507.735 112.037V388.263H492.803V22.4505C492.767 19.3625 490.605 16.4145 487.668 15.4505L442.865 0.51849C440.86 -0.80451 438.99 0.799484 437.266 0.987484L407.402 15.9195C404.954 17.1125 403.266 19.7315 403.204 22.4505V388.263H395.735V201.623C395.668 198.155 392.866 194.931 389.433 194.389L344.63 186.925C343.615 186.446 342.542 186.925 341.599 186.925L311.735 194.389C308.558 195.212 306.136 198.342 306.136 201.623V388.263H283.735V171.757C283.667 168.288 280.865 165.065 277.433 164.523L232.63 157.059C231.615 156.58 230.542 157.059 229.599 157.059L199.735 164.523C196.558 165.346 194.136 168.475 194.136 171.757V388.263H186.667V22.4505C186.6 19.7265 184.917 17.1065 182.469 15.9195L152.605 0.987484C150.158 -0.278516 148.512 0.00849026 147.006 0.51849L147.001 0.523495ZM141.866 18.0185V388.271H112.002V380.809H134.403V365.876H112.002V358.413H134.403V343.48H112.002V336.017H134.403V321.085H112.002V313.621H134.403V298.689H112.002V291.225H134.403V276.293H112.002V268.83H134.403V253.898H112.002V246.434H134.403V231.502H112.002V224.04H134.403V209.107H112.002V201.643H134.403V186.712H112.002V179.247H134.403V164.316H112.002V156.852H134.403V141.92H112.002V134.456H134.403V119.524H112.002V112.061H119.47V37.4055H112.002V28.0715L141.866 18.0185ZM447.999 18.0185L477.863 28.0495V37.3835H470.394V112.04H477.863V119.502H455.462V134.434H477.863V141.898H455.462V156.83H477.863V164.294H455.462V179.225H477.863V186.689H455.462V201.622H477.863V209.085H455.462V224.018H477.863V231.48H455.462V246.412H477.863V253.876H455.462V268.808H477.863V276.271H455.462V291.203H477.863V298.667H455.462V313.599H477.863V321.063H455.462V335.995H477.863V343.458H455.462V358.39H477.863V365.854H455.462V380.786H477.863V388.249H447.999V18.0185ZM156.799 19.6535L171.731 27.1175V29.9195H164.262V52.3155H171.731V59.7795H164.262V112.04H171.731V119.502H164.262V171.762H171.731V179.226H164.262V231.486H171.731V238.95H164.262V291.21H171.731V298.673H164.262V313.605H171.731V321.069H164.262V336.001H171.731V343.464H164.262V358.396H171.731V365.861H164.262V380.792H171.731V388.257H156.799V19.6535ZM433.066 19.6535V388.267H418.134V380.803H425.602V365.871H418.134V358.408H425.602V343.476H418.134V336.012H425.602V321.08H418.134V313.616H425.602V298.684H418.134V291.221H425.602V238.962H418.134V231.497H425.602V179.238H418.134V171.774H425.602V119.514H418.134V112.05H425.602V59.7905H418.134V52.3265H425.602V29.9305H418.134V27.1285L433.066 19.6535ZM44.799 101.779V388.272H14.935V380.809H37.336V365.877H14.935V358.413H37.336V343.481H14.935V336.017H37.336V321.085H14.935V313.622H37.336V298.69H14.935V291.226H37.336V276.294H14.935V268.831H37.336V253.899H14.935V246.436H37.336V231.503H14.935V224.04H37.336V209.107H14.935V201.644H37.336V186.712H14.935V179.248H37.336V164.316H14.935V156.854H37.336V141.921H14.935V134.458H37.336V119.525H14.935V116.723L44.799 101.779ZM552.532 101.779L582.396 116.712V123.242L559.995 112.044V171.768H582.396V186.7H559.995V246.424H582.396V261.356H559.995V321.08H582.396V336.012H559.995V388.272H552.526L552.532 101.779ZM59.732 104.581L74.664 115.779V119.514H67.195V171.773H74.664V179.238H67.195V231.497H74.664V238.96H67.195V291.22H74.664V298.684H67.195V313.616H74.664V321.08H67.195V336.012H74.664V343.475H67.195V358.408H74.664V365.871H67.195V380.803H74.664V388.266H59.732V104.581ZM537.599 104.581V388.275H522.667V380.811H530.136V365.879H522.667V350.947H530.136V336.015H522.667V321.083H530.136V306.151H522.667V291.219H530.136V276.287H522.667V261.355H530.136V246.424H522.667V231.492H530.136V216.559H522.667V201.627H530.136V186.695H522.667V171.764H530.136V156.831H522.667V141.899H530.136V126.967H522.667V115.769L537.599 104.581ZM223.999 173.873V388.273H216.53V343.481H209.061V336.017H216.53V283.757H209.061V276.294H216.53V224.035H209.061V216.57H216.53V175.742L223.999 173.873ZM238.931 188.102L268.795 193.003V200.467L238.931 195.337V188.102ZM343.462 201.868L350.93 203.035V224.029H321.066V207.467L343.462 201.868ZM365.863 205.602L380.795 207.936V388.283H365.863V205.602ZM238.931 210.503L268.795 215.404V222.868L238.931 217.738V210.503ZM238.931 232.899L268.795 237.8V245.264L238.931 240.133V232.899ZM321.067 238.967H350.931V253.899H321.067V238.967ZM238.931 255.3L268.795 260.201V267.665L238.931 262.535V255.3ZM321.067 268.831H350.931V283.763H321.067V268.831ZM238.931 277.695L268.795 282.596V290.06L238.931 284.93V277.695ZM321.067 298.69H350.931V313.622H321.067V298.69ZM238.931 300.091L268.795 304.992V312.456L238.931 307.32V300.091ZM238.931 322.487L268.795 327.388V334.852L238.931 329.721V322.487ZM321.067 328.555H350.931V343.487H321.067V328.555ZM238.931 344.888L268.795 349.789V357.253L238.931 352.124V344.888ZM321.067 358.419H350.931V373.351H321.067V358.419ZM238.931 367.283L268.795 372.184V379.648L238.931 374.518V367.283Z" fill="white"/>
</svg>
